<svg width="69" height="51" viewBox="0 0 69 51" fill="none" xmlns="http://www.w3.org/2000/svg">
<path d="M59.5 13H50.125V0.499995H6.37499C2.93749 0.499995 0.124992 3.31249 0.124992 6.74999V41.125H6.37499C6.37499 46.3125 10.5625 50.5 15.75 50.5C20.9375 50.5 25.125 46.3125 25.125 41.125H43.875C43.875 46.3125 48.0625 50.5 53.25 50.5C58.4375 50.5 62.625 46.3125 62.625 41.125H68.875V25.5L59.5 13ZM57.9375 17.6875L64.0625 25.5H50.125V17.6875H57.9375ZM15.75 44.25C14.0312 44.25 12.625 42.8437 12.625 41.125C12.625 39.4062 14.0312 38 15.75 38C17.4687 38 18.875 39.4062 18.875 41.125C18.875 42.8437 17.4687 44.25 15.75 44.25ZM22.6875 34.875C20.9687 32.9687 18.5312 31.75 15.75 31.75C12.9687 31.75 10.5312 32.9687 8.81249 34.875H6.37499V6.74999H43.875V34.875H22.6875ZM53.25 44.25C51.5312 44.25 50.125 42.8437 50.125 41.125C50.125 39.4062 51.5312 38 53.25 38C54.9687 38 56.375 39.4062 56.375 41.125C56.375 42.8437 54.9687 44.25 53.25 44.25Z" fill="#215899"/>
</svg>
