<svg width="29" height="29" viewBox="0 0 29 29" fill="none" xmlns="http://www.w3.org/2000/svg">
<path d="M14.4999 4.07917C16.4816 4.07917 18.0874 5.685 18.0874 7.66667C18.0874 9.64833 16.4816 11.2542 14.4999 11.2542C12.5183 11.2542 10.9124 9.64833 10.9124 7.66667C10.9124 5.685 12.5183 4.07917 14.4999 4.07917ZM14.4999 19.4542C19.5737 19.4542 24.9207 21.9483 24.9207 23.0417V24.9208H4.07908V23.0417C4.07908 21.9483 9.42617 19.4542 14.4999 19.4542ZM14.4999 0.833336C10.7245 0.833336 7.66658 3.89125 7.66658 7.66667C7.66658 11.4421 10.7245 14.5 14.4999 14.5C18.2753 14.5 21.3332 11.4421 21.3332 7.66667C21.3332 3.89125 18.2753 0.833336 14.4999 0.833336ZM14.4999 16.2083C9.93867 16.2083 0.833252 18.4975 0.833252 23.0417V28.1667H28.1666V23.0417C28.1666 18.4975 19.0612 16.2083 14.4999 16.2083Z" fill="#215899"/>
</svg>
